# xmcd CD database file
#
# Track frame offsets:
#	150
#	23209
#	42571
#	64651
#	88619
#	123206
#	142911
#	164066
#	179619
#	206935
#	233274
#	252624
#	268471
#	293997
#
# Disc length: 4519 seconds
#
# Revision: 0
# Processed by: cddbd v1.5.2PL0 Copyright (c) Steve Scherf et al.
# Submitted via: CDex 1.51
#
DISCID=d911a50e
DTITLE=Tab Benoit - Legacy: The Best Of Tab Benoit
DYEAR=2012
DGENRE=Blues
TTITLE0=Shelter Me
TTITLE1=Night Train
TTITLE2=I Put A Spell On You
TTITLE3=For What It's Worth
TTITLE4=Nice And Warm
TTITLE5=Muddy Bottom Blues
TTITLE6=Darkness
TTITLE7=Comin' On Strong
TTITLE8=The Blues Is Here To Stay
TTITLE9=Medicine
TTITLE10=These Arms Of Mine
TTITLE11=Whiskey Store
TTITLE12=New Orleans Ladies
TTITLE13=Bayou Boogie
EXTD=YEAR: 2012
EXTT0=
EXTT1=
EXTT2=
EXTT3=
EXTT4=
EXTT5=
EXTT6=
EXTT7=
EXTT8=
EXTT9=
EXTT10=
EXTT11=
EXTT12=
EXTT13=
PLAYORDER=
